<svg width="139" height="71" viewBox="0 0 139 71" fill="none" xmlns="http://www.w3.org/2000/svg">
<g filter="url(#filter0_d_3059_2412)">
<path d="M66.4635 20.6012H38.2426L36.4559 27.9396H64.6768L60.5377 45.2487H32.3152L28.1761 62.7448H4L19.051 0H71.4481L66.4635 20.6012Z" fill="#896CFE"/>
<path d="M19.4452 0.5H70.8126L66.0701 20.1012H38.2426H37.8497L37.7568 20.4829L35.9701 27.8214L35.8195 28.4396H36.4559H64.0431L60.1432 44.7487H32.3152H31.9197L31.8287 45.1336L27.7806 62.2448H4.63412L19.4452 0.5Z" stroke="black"/>
</g>
<path d="M118.775 0C129.217 0 132.322 0.56414 135.426 2.72797C137.778 4.42039 139.001 7.33692 139.001 11.1004C139.001 17.1205 135.897 23.8948 131.57 27.0927C129.311 28.7851 126.396 29.9149 121.692 30.9489L121.597 31.3245C126.019 31.9829 126.959 32.2658 128.464 33.1127C131.192 34.8052 132.604 37.3446 132.604 41.0154C132.604 48.918 127.806 57.1019 121.22 60.394C117.834 61.9937 113.225 62.7464 105.511 62.7464H64.5898L79.6408 0.00154533H118.775V0Z" fill="#896CFE"/>
<path d="M115.004 30.359C112.738 29.9974 110.763 28.6697 109.559 26.7578L106.466 33.2539C108.528 35.138 111.12 36.4178 113.962 36.8722C115.761 37.1596 117.452 35.9355 117.739 34.1365C118.028 32.3374 116.803 30.6465 115.004 30.359Z" fill="#E2F163"/>
<path d="M90.6231 43.8803C91.8812 43.412 93.1548 42.7366 94.3495 41.8061C93.8178 41.463 93.3371 41.0983 92.9106 40.7103C91.9198 39.8108 91.2151 38.8077 90.7437 37.8139C90.552 37.4105 90.4005 37.0117 90.2769 36.6191C89.9585 36.8649 89.6324 37.0751 89.2939 37.2575C88.5845 37.6392 87.8256 37.9004 87.0435 38.0643C86.263 38.2281 85.4624 38.2946 84.7081 38.2946C83.6355 38.2946 82.6571 38.1601 81.9755 38.0272C81.6339 37.9607 81.3681 37.8958 81.1981 37.851C81.1131 37.8293 81.0543 37.8108 81.0203 37.8015L80.9925 37.7938H80.991C79.263 37.2451 77.4129 38.1941 76.8534 39.9221C76.2924 41.6547 77.2445 43.514 78.9771 44.0751C79.0791 44.1075 79.7081 44.3069 80.7128 44.5032C81.7174 44.6979 83.0961 44.8911 84.7066 44.8927C85.7143 44.8927 86.8117 44.817 87.9647 44.6068C88.8287 44.4491 89.722 44.2173 90.6231 43.8803Z" fill="#E2F163"/>
<path d="M115.36 51.9185H112.102C112.157 51.7037 112.193 51.4811 112.205 51.2508C112.208 51.1998 112.216 51.0221 112.216 50.7392C112.216 50.0762 112.174 48.8351 111.905 47.2709C111.703 46.0978 111.372 44.7439 110.817 43.3188C110.401 42.2508 109.857 41.1426 109.14 40.0546C108.602 39.24 107.967 38.4363 107.221 37.6805C106.102 36.5461 104.726 35.5182 103.095 34.7161C103.08 34.7083 103.063 34.7006 103.046 34.6929L108.341 23.5708L108.588 22.982C109.644 20.4611 108.456 17.5631 105.935 16.5075C105.581 16.3591 105.219 16.2571 104.856 16.1953C104.545 16.0793 104.225 16.0129 103.905 15.9928C103.83 15.9773 103.749 15.9619 103.661 15.9449C102.936 15.8089 101.825 15.6543 100.439 15.6543C98.5915 15.6528 96.2392 15.931 93.6287 16.8722C91.0182 17.8104 88.165 19.4163 85.3288 21.9789C83.9764 23.1983 83.8698 25.2849 85.0893 26.6373C86.3087 27.9897 88.3953 28.0963 89.7477 26.8768C91.9811 24.8645 94.0537 23.7331 95.8651 23.0778C96.5684 22.8243 97.233 22.645 97.8543 22.5183L93.2639 32.2045C93.2608 32.2153 93.2577 32.2292 93.2531 32.2493C93.2407 32.3065 93.2206 32.4023 93.2005 32.5291C93.1603 32.7841 93.1171 33.1628 93.1171 33.6156C93.1171 34.1257 93.1712 34.7254 93.3365 35.3467C93.5019 35.9696 93.7724 36.611 94.2144 37.24C94.5096 37.6589 94.8821 38.0746 95.3628 38.475C95.8899 38.9139 96.5529 39.3358 97.3906 39.7145C98.2036 39.8753 98.9146 40.0932 99.5436 40.3482C100.272 40.645 100.89 40.9943 101.431 41.3822C102.375 42.0607 103.094 42.8598 103.669 43.7408C104.098 44.4008 104.442 45.1071 104.711 45.815C105.114 46.8768 105.349 47.9463 105.474 48.8335C105.601 49.7191 105.619 50.4193 105.619 50.7408C105.619 50.8211 105.618 50.8768 105.618 50.9077L105.616 50.9324H105.618C105.602 51.274 105.639 51.6048 105.721 51.9201H88.9981C88.3149 51.9201 87.7616 52.4734 87.7616 53.1565C87.7616 53.8397 88.3149 54.393 88.9981 54.393H115.361C116.044 54.393 116.598 53.8397 116.598 53.1565C116.596 52.4718 116.043 51.9185 115.36 51.9185Z" fill="#E2F163"/>
<path d="M83 51.916H80.0216C79.3385 51.916 78.7852 52.4693 78.7852 53.1525C78.7852 53.8356 79.3385 54.389 80.0216 54.389H83C83.6831 54.389 84.2365 53.8356 84.2365 53.1525C84.2365 52.4693 83.6831 51.916 83 51.916Z" fill="#E2F163"/>
<path d="M108.909 15.8213C111.082 15.8213 112.844 14.0595 112.844 11.8862C112.844 9.71296 111.082 7.95117 108.909 7.95117C106.735 7.95117 104.974 9.71296 104.974 11.8862C104.974 14.0595 106.735 15.8213 108.909 15.8213Z" fill="#E2F163"/>
<defs>
<filter id="filter0_d_3059_2412" x="0" y="0" width="75.4482" height="70.7441" filterUnits="userSpaceOnUse" color-interpolation-filters="sRGB">
<feFlood flood-opacity="0" result="BackgroundImageFix"/>
<feColorMatrix in="SourceAlpha" type="matrix" values="0 0 0 0 0 0 0 0 0 0 0 0 0 0 0 0 0 0 127 0" result="hardAlpha"/>
<feOffset dy="4"/>
<feGaussianBlur stdDeviation="2"/>
<feComposite in2="hardAlpha" operator="out"/>
<feColorMatrix type="matrix" values="0 0 0 0 0 0 0 0 0 0 0 0 0 0 0 0 0 0 0.25 0"/>
<feBlend mode="normal" in2="BackgroundImageFix" result="effect1_dropShadow_3059_2412"/>
<feBlend mode="normal" in="SourceGraphic" in2="effect1_dropShadow_3059_2412" result="shape"/>
</filter>
</defs>
</svg>
