<svg width="322" height="285" viewBox="0 0 322 285" fill="none" xmlns="http://www.w3.org/2000/svg">
<rect x="0.5" y="0.5" width="321" height="284" rx="19.5" stroke="white"/>
<path d="M25.168 42.119C24.3747 42.119 23.6607 41.983 23.026 41.711C22.3913 41.4277 21.8927 41.031 21.53 40.521C21.1673 40.011 20.986 39.416 20.986 38.736H23.06C23.1053 39.246 23.3037 39.6653 23.655 39.994C24.0177 40.3227 24.522 40.487 25.168 40.487C25.8367 40.487 26.358 40.3283 26.732 40.011C27.106 39.6823 27.293 39.263 27.293 38.753C27.293 38.3563 27.174 38.0333 26.936 37.784C26.7093 37.5347 26.4203 37.342 26.069 37.206C25.729 37.07 25.253 36.9227 24.641 36.764C23.8703 36.56 23.2413 36.356 22.754 36.152C22.278 35.9367 21.87 35.608 21.53 35.166C21.19 34.724 21.02 34.1347 21.02 33.398C21.02 32.718 21.19 32.123 21.53 31.613C21.87 31.103 22.346 30.712 22.958 30.44C23.57 30.168 24.2783 30.032 25.083 30.032C26.2277 30.032 27.1627 30.321 27.888 30.899C28.6247 31.4657 29.0327 32.2477 29.112 33.245H26.97C26.936 32.8143 26.732 32.446 26.358 32.14C25.984 31.834 25.491 31.681 24.879 31.681C24.3237 31.681 23.8703 31.8227 23.519 32.106C23.1677 32.3893 22.992 32.7973 22.992 33.33C22.992 33.6927 23.0997 33.993 23.315 34.231C23.5417 34.4577 23.825 34.639 24.165 34.775C24.505 34.911 24.9697 35.0583 25.559 35.217C26.341 35.4323 26.9757 35.6477 27.463 35.863C27.9617 36.0783 28.381 36.4127 28.721 36.866C29.0723 37.308 29.248 37.903 29.248 38.651C29.248 39.2517 29.0837 39.8183 28.755 40.351C28.4377 40.8837 27.9673 41.3143 27.344 41.643C26.732 41.9603 26.0067 42.119 25.168 42.119ZM33.7958 34.214V39.399C33.7958 39.7503 33.8751 40.0053 34.0338 40.164C34.2038 40.3113 34.4871 40.385 34.8838 40.385H36.0738V42H34.5438C33.6711 42 33.0024 41.796 32.5378 41.388C32.0731 40.98 31.8408 40.317 31.8408 39.399V34.214H30.7358V32.633H31.8408V30.304H33.7958V32.633H36.0738V34.214H33.7958ZM46.445 37.087C46.445 37.4383 46.4223 37.7557 46.377 38.039H39.22C39.2766 38.787 39.5543 39.3877 40.053 39.841C40.5516 40.2943 41.1636 40.521 41.889 40.521C42.9316 40.521 43.6683 40.0847 44.099 39.212H46.19C45.9066 40.0733 45.391 40.7817 44.643 41.337C43.9063 41.881 42.9883 42.153 41.889 42.153C40.9936 42.153 40.189 41.9547 39.475 41.558C38.7723 41.15 38.217 40.5833 37.809 39.858C37.4123 39.1213 37.214 38.2713 37.214 37.308C37.214 36.3447 37.4066 35.5003 37.792 34.775C38.1886 34.0383 38.7383 33.4717 39.441 33.075C40.155 32.6783 40.971 32.48 41.889 32.48C42.773 32.48 43.5606 32.6727 44.252 33.058C44.9433 33.4433 45.4816 33.9873 45.867 34.69C46.2523 35.3813 46.445 36.1803 46.445 37.087ZM44.422 36.475C44.4106 35.761 44.1556 35.1887 43.657 34.758C43.1583 34.3273 42.5406 34.112 41.804 34.112C41.1353 34.112 40.563 34.3273 40.087 34.758C39.611 35.1773 39.3276 35.7497 39.237 36.475H44.422ZM50.2901 34.01C50.6188 33.5793 51.0665 33.2167 51.6331 32.922C52.1998 32.6273 52.8401 32.48 53.5541 32.48C54.3701 32.48 55.1125 32.684 55.7811 33.092C56.4611 33.4887 56.9938 34.0497 57.3791 34.775C57.7645 35.5003 57.9571 36.3333 57.9571 37.274C57.9571 38.2147 57.7645 39.059 57.3791 39.807C56.9938 40.5437 56.4611 41.1217 55.7811 41.541C55.1125 41.949 54.3701 42.153 53.5541 42.153C52.8401 42.153 52.2055 42.0113 51.6501 41.728C51.0948 41.4333 50.6415 41.0707 50.2901 40.64V46.454H48.3521V32.633H50.2901V34.01ZM55.9851 37.274C55.9851 36.628 55.8491 36.0727 55.5771 35.608C55.3165 35.132 54.9651 34.775 54.5231 34.537C54.0925 34.2877 53.6278 34.163 53.1291 34.163C52.6418 34.163 52.1771 34.2877 51.7351 34.537C51.3045 34.7863 50.9531 35.149 50.6811 35.625C50.4205 36.101 50.2901 36.662 50.2901 37.308C50.2901 37.954 50.4205 38.5207 50.6811 39.008C50.9531 39.484 51.3045 39.8467 51.7351 40.096C52.1771 40.3453 52.6418 40.47 53.1291 40.47C53.6278 40.47 54.0925 40.3453 54.5231 40.096C54.9651 39.8353 55.3165 39.4613 55.5771 38.974C55.8491 38.4867 55.9851 37.92 55.9851 37.274ZM63.2736 42.153C62.537 42.153 61.874 42.0227 61.2846 41.762C60.7066 41.49 60.2476 41.1273 59.9076 40.674C59.5676 40.2093 59.3863 39.6937 59.3636 39.127H61.3696C61.4036 39.5237 61.5906 39.858 61.9306 40.13C62.282 40.3907 62.7183 40.521 63.2396 40.521C63.7836 40.521 64.203 40.419 64.4976 40.215C64.8036 39.9997 64.9566 39.7277 64.9566 39.399C64.9566 39.0477 64.7866 38.787 64.4466 38.617C64.118 38.447 63.591 38.26 62.8656 38.056C62.163 37.8633 61.5906 37.6763 61.1486 37.495C60.7066 37.3137 60.3213 37.036 59.9926 36.662C59.6753 36.288 59.5166 35.795 59.5166 35.183C59.5166 34.6843 59.664 34.231 59.9586 33.823C60.2533 33.4037 60.6726 33.075 61.2166 32.837C61.772 32.599 62.4066 32.48 63.1206 32.48C64.186 32.48 65.0416 32.752 65.6876 33.296C66.345 33.8287 66.6963 34.5597 66.7416 35.489H64.8036C64.7696 35.0697 64.5996 34.7353 64.2936 34.486C63.9876 34.2367 63.574 34.112 63.0526 34.112C62.5426 34.112 62.1516 34.2083 61.8796 34.401C61.6076 34.5937 61.4716 34.8487 61.4716 35.166C61.4716 35.4153 61.5623 35.625 61.7436 35.795C61.925 35.965 62.146 36.101 62.4066 36.203C62.6673 36.2937 63.0526 36.4127 63.5626 36.56C64.2426 36.7413 64.798 36.9283 65.2286 37.121C65.6706 37.3023 66.0503 37.5743 66.3676 37.937C66.685 38.2997 66.8493 38.7813 66.8606 39.382C66.8606 39.9147 66.7133 40.3907 66.4186 40.81C66.124 41.2293 65.7046 41.558 65.1606 41.796C64.628 42.034 63.999 42.153 63.2736 42.153Z" fill="#E2F163"/>
<path d="M20.585 76.875V75.523H23.289V85H21.794V76.875H20.585ZM31.3309 76.667L27.7169 85H26.2219L29.8749 76.823H25.0649V75.562H31.3309V76.667ZM32.5993 80.138C32.5993 78.6387 32.8507 77.4687 33.3533 76.628C33.8647 75.7787 34.74 75.354 35.9793 75.354C37.2187 75.354 38.0897 75.7787 38.5923 76.628C39.1037 77.4687 39.3593 78.6387 39.3593 80.138C39.3593 81.6547 39.1037 82.842 38.5923 83.7C38.0897 84.5493 37.2187 84.974 35.9793 84.974C34.74 84.974 33.8647 84.5493 33.3533 83.7C32.8507 82.842 32.5993 81.6547 32.5993 80.138ZM37.9033 80.138C37.9033 79.436 37.8557 78.8423 37.7603 78.357C37.6737 77.8717 37.4917 77.4773 37.2143 77.174C36.937 76.862 36.5253 76.706 35.9793 76.706C35.4333 76.706 35.0217 76.862 34.7443 77.174C34.467 77.4773 34.2807 77.8717 34.1853 78.357C34.0987 78.8423 34.0553 79.436 34.0553 80.138C34.0553 80.866 34.0987 81.477 34.1853 81.971C34.272 82.465 34.454 82.8637 34.7313 83.167C35.0173 83.4703 35.4333 83.622 35.9793 83.622C36.5253 83.622 36.937 83.4703 37.2143 83.167C37.5003 82.8637 37.6867 82.465 37.7733 81.971C37.86 81.477 37.9033 80.866 37.9033 80.138Z" fill="#E2F163"/>
<path d="M20.585 121.875V120.523H23.289V130H21.794V121.875H20.585ZM30.4209 122.72C30.3256 122.321 30.1523 122.022 29.9009 121.823C29.6496 121.624 29.2986 121.524 28.8479 121.524C28.1633 121.524 27.6519 121.788 27.3139 122.317C26.9759 122.837 26.7983 123.704 26.7809 124.917C27.0063 124.536 27.3356 124.241 27.7689 124.033C28.2023 123.825 28.6703 123.721 29.1729 123.721C29.7449 123.721 30.2476 123.847 30.6809 124.098C31.1229 124.341 31.4653 124.696 31.7079 125.164C31.9593 125.632 32.0849 126.191 32.0849 126.841C32.0849 127.448 31.9636 127.989 31.7209 128.466C31.4869 128.943 31.1359 129.32 30.6679 129.597C30.1999 129.866 29.6366 130 28.9779 130C28.0853 130 27.3833 129.805 26.8719 129.415C26.3693 129.016 26.0139 128.457 25.8059 127.738C25.6066 127.019 25.5069 126.122 25.5069 125.047C25.5069 121.875 26.6249 120.289 28.8609 120.289C29.7276 120.289 30.4079 120.523 30.9019 120.991C31.4046 121.459 31.6993 122.035 31.7859 122.72H30.4209ZM28.8479 124.969C28.3193 124.969 27.8686 125.129 27.4959 125.45C27.1319 125.762 26.9499 126.217 26.9499 126.815C26.9499 127.413 27.1189 127.89 27.4569 128.245C27.8036 128.592 28.2846 128.765 28.8999 128.765C29.4459 128.765 29.8749 128.596 30.1869 128.258C30.5076 127.92 30.6679 127.469 30.6679 126.906C30.6679 126.317 30.5119 125.849 30.1999 125.502C29.8966 125.147 29.4459 124.969 28.8479 124.969ZM39.7757 121.797H35.4207V124.384C35.6027 124.141 35.8714 123.938 36.2267 123.773C36.5907 123.608 36.9764 123.526 37.3837 123.526C38.1117 123.526 38.7011 123.682 39.1517 123.994C39.6111 124.306 39.9361 124.7 40.1267 125.177C40.3261 125.654 40.4257 126.156 40.4257 126.685C40.4257 127.326 40.3001 127.898 40.0487 128.401C39.8061 128.895 39.4377 129.285 38.9437 129.571C38.4584 129.857 37.8604 130 37.1497 130C36.2051 130 35.4467 129.766 34.8747 129.298C34.3027 128.83 33.9604 128.21 33.8477 127.439H35.2907C35.3861 127.846 35.5984 128.171 35.9277 128.414C36.2571 128.648 36.6687 128.765 37.1627 128.765C37.7781 128.765 38.2374 128.579 38.5407 128.206C38.8527 127.833 39.0087 127.339 39.0087 126.724C39.0087 126.1 38.8527 125.623 38.5407 125.294C38.2287 124.956 37.7694 124.787 37.1627 124.787C36.7381 124.787 36.3784 124.895 36.0837 125.112C35.7977 125.32 35.5897 125.606 35.4597 125.97H34.0557V120.497H39.7757V121.797Z" fill="#E2F163"/>
<path d="M20.585 166.875V165.523H23.289V175H21.794V166.875H20.585ZM31.4349 166.797H27.0799V169.384C27.2619 169.141 27.5306 168.938 27.8859 168.773C28.2499 168.608 28.6356 168.526 29.0429 168.526C29.7709 168.526 30.3603 168.682 30.8109 168.994C31.2703 169.306 31.5953 169.7 31.7859 170.177C31.9853 170.654 32.0849 171.156 32.0849 171.685C32.0849 172.326 31.9593 172.898 31.7079 173.401C31.4653 173.895 31.0969 174.285 30.6029 174.571C30.1176 174.857 29.5196 175 28.8089 175C27.8643 175 27.1059 174.766 26.5339 174.298C25.9619 173.83 25.6196 173.21 25.5069 172.439H26.9499C27.0453 172.846 27.2576 173.171 27.5869 173.414C27.9163 173.648 28.3279 173.765 28.8219 173.765C29.4373 173.765 29.8966 173.579 30.1999 173.206C30.5119 172.833 30.6679 172.339 30.6679 171.724C30.6679 171.1 30.5119 170.623 30.1999 170.294C29.8879 169.956 29.4286 169.787 28.8219 169.787C28.3973 169.787 28.0376 169.895 27.7429 170.112C27.4569 170.32 27.2489 170.606 27.1189 170.97H25.7149V165.497H31.4349V166.797ZM39.7377 166.797H35.3827V169.384C35.5647 169.141 35.8333 168.938 36.1887 168.773C36.5527 168.608 36.9383 168.526 37.3457 168.526C38.0737 168.526 38.663 168.682 39.1137 168.994C39.573 169.306 39.898 169.7 40.0887 170.177C40.288 170.654 40.3877 171.156 40.3877 171.685C40.3877 172.326 40.262 172.898 40.0107 173.401C39.768 173.895 39.3997 174.285 38.9057 174.571C38.4203 174.857 37.8223 175 37.1117 175C36.167 175 35.4087 174.766 34.8367 174.298C34.2647 173.83 33.9223 173.21 33.8097 172.439H35.2527C35.348 172.846 35.5603 173.171 35.8897 173.414C36.219 173.648 36.6307 173.765 37.1247 173.765C37.74 173.765 38.1993 173.579 38.5027 173.206C38.8147 172.833 38.9707 172.339 38.9707 171.724C38.9707 171.1 38.8147 170.623 38.5027 170.294C38.1907 169.956 37.7313 169.787 37.1247 169.787C36.7 169.787 36.3403 169.895 36.0457 170.112C35.7597 170.32 35.5517 170.606 35.4217 170.97H34.0177V165.497H39.7377V166.797Z" fill="#E2F163"/>
<path d="M20.585 211.875V210.523H23.289V220H21.794V211.875H20.585ZM31.4349 211.797H27.0799V214.384C27.2619 214.141 27.5306 213.938 27.8859 213.773C28.2499 213.608 28.6356 213.526 29.0429 213.526C29.7709 213.526 30.3603 213.682 30.8109 213.994C31.2703 214.306 31.5953 214.7 31.7859 215.177C31.9853 215.654 32.0849 216.156 32.0849 216.685C32.0849 217.326 31.9593 217.898 31.7079 218.401C31.4653 218.895 31.0969 219.285 30.6029 219.571C30.1176 219.857 29.5196 220 28.8089 220C27.8643 220 27.1059 219.766 26.5339 219.298C25.9619 218.83 25.6196 218.21 25.5069 217.439H26.9499C27.0453 217.846 27.2576 218.171 27.5869 218.414C27.9163 218.648 28.3279 218.765 28.8219 218.765C29.4373 218.765 29.8966 218.579 30.1999 218.206C30.5119 217.833 30.6679 217.339 30.6679 216.724C30.6679 216.1 30.5119 215.623 30.1999 215.294C29.8879 214.956 29.4286 214.787 28.8219 214.787C28.3973 214.787 28.0376 214.895 27.7429 215.112C27.4569 215.32 27.2489 215.606 27.1189 215.97H25.7149V210.497H31.4349V211.797ZM33.6277 215.138C33.6277 213.639 33.879 212.469 34.3817 211.628C34.893 210.779 35.7683 210.354 37.0077 210.354C38.247 210.354 39.118 210.779 39.6207 211.628C40.132 212.469 40.3877 213.639 40.3877 215.138C40.3877 216.655 40.132 217.842 39.6207 218.7C39.118 219.549 38.247 219.974 37.0077 219.974C35.7683 219.974 34.893 219.549 34.3817 218.7C33.879 217.842 33.6277 216.655 33.6277 215.138ZM38.9317 215.138C38.9317 214.436 38.884 213.842 38.7887 213.357C38.702 212.872 38.52 212.477 38.2427 212.174C37.9653 211.862 37.5537 211.706 37.0077 211.706C36.4617 211.706 36.05 211.862 35.7727 212.174C35.4953 212.477 35.309 212.872 35.2137 213.357C35.127 213.842 35.0837 214.436 35.0837 215.138C35.0837 215.866 35.127 216.477 35.2137 216.971C35.3003 217.465 35.4823 217.864 35.7597 218.167C36.0457 218.47 36.4617 218.622 37.0077 218.622C37.5537 218.622 37.9653 218.47 38.2427 218.167C38.5287 217.864 38.715 217.465 38.8017 216.971C38.8883 216.477 38.9317 215.866 38.9317 215.138Z" fill="#E2F163"/>
<rect x="72" y="73" width="16" height="147" rx="8" fill="#D9D9D9"/>
<path d="M72 152H88V212C88 216.418 84.4183 220 80 220C75.5817 220 72 216.418 72 212V152Z" fill="#E2F163"/>
<rect x="132" y="73" width="16" height="147" rx="8" fill="#D9D9D9"/>
<path d="M132 115H148V212C148 216.418 144.418 220 140 220C135.582 220 132 216.418 132 212V115Z" fill="#E2F163"/>
<rect x="192" y="73" width="16" height="147" rx="8" fill="#D9D9D9"/>
<path d="M192 165H208V212C208 216.418 204.418 220 200 220C195.582 220 192 216.418 192 212V165Z" fill="#E2F163"/>
<rect x="252" y="73" width="16" height="147" rx="8" fill="#D9D9D9"/>
<path d="M252 160H268V212C268 216.418 264.418 220 260 220C255.582 220 252 216.418 252 212V160Z" fill="#E2F163"/>
<path d="M20 232H302" stroke="white"/>
<path d="M74.902 247.965V254.478C74.902 255.284 74.655 255.921 74.161 256.389C73.6757 256.857 73.0343 257.091 72.237 257.091C71.4397 257.091 70.794 256.857 70.3 256.389C69.8147 255.921 69.572 255.284 69.572 254.478H71.067C71.0757 254.877 71.1753 255.193 71.366 255.427C71.5653 255.661 71.8557 255.778 72.237 255.778C72.6183 255.778 72.9087 255.661 73.108 255.427C73.3073 255.184 73.407 254.868 73.407 254.478V247.965H74.902ZM76.8189 253.386C76.8189 252.667 76.9662 252.03 77.2609 251.475C77.5642 250.92 77.9716 250.491 78.4829 250.188C79.0029 249.876 79.5749 249.72 80.1989 249.72C80.7622 249.72 81.2519 249.833 81.6679 250.058C82.0926 250.275 82.4306 250.548 82.6819 250.877V249.837H84.1769V257H82.6819V255.934C82.4306 256.272 82.0882 256.554 81.6549 256.779C81.2216 257.004 80.7276 257.117 80.1729 257.117C79.5576 257.117 78.9942 256.961 78.4829 256.649C77.9716 256.328 77.5642 255.886 77.2609 255.323C76.9662 254.751 76.8189 254.105 76.8189 253.386ZM82.6819 253.412C82.6819 252.918 82.5779 252.489 82.3699 252.125C82.1706 251.761 81.9062 251.484 81.5769 251.293C81.2476 251.102 80.8922 251.007 80.5109 251.007C80.1296 251.007 79.7742 251.102 79.4449 251.293C79.1156 251.475 78.8469 251.748 78.6389 252.112C78.4396 252.467 78.3399 252.892 78.3399 253.386C78.3399 253.88 78.4396 254.313 78.6389 254.686C78.8469 255.059 79.1156 255.345 79.4449 255.544C79.7829 255.735 80.1382 255.83 80.5109 255.83C80.8922 255.83 81.2476 255.735 81.5769 255.544C81.9062 255.353 82.1706 255.076 82.3699 254.712C82.5779 254.339 82.6819 253.906 82.6819 253.412ZM89.7374 249.72C90.3008 249.72 90.8034 249.837 91.2454 250.071C91.6961 250.305 92.0471 250.652 92.2984 251.111C92.5498 251.57 92.6754 252.125 92.6754 252.775V257H91.2064V252.996C91.2064 252.355 91.0461 251.865 90.7254 251.527C90.4048 251.18 89.9671 251.007 89.4124 251.007C88.8578 251.007 88.4158 251.18 88.0864 251.527C87.7658 251.865 87.6054 252.355 87.6054 252.996V257H86.1234V249.837H87.6054V250.656C87.8481 250.361 88.1558 250.132 88.5284 249.967C88.9098 249.802 89.3128 249.72 89.7374 249.72Z" fill="#E2F163"/>
<path d="M133.292 247.965V249.174H129.457V251.839H132.447V253.048H129.457V257H127.975V247.965H133.292ZM141.23 253.243C141.23 253.512 141.213 253.754 141.178 253.971H135.705C135.749 254.543 135.961 255.002 136.342 255.349C136.724 255.696 137.192 255.869 137.746 255.869C138.544 255.869 139.107 255.535 139.436 254.868H141.035C140.819 255.527 140.424 256.068 139.852 256.493C139.289 256.909 138.587 257.117 137.746 257.117C137.062 257.117 136.446 256.965 135.9 256.662C135.363 256.35 134.938 255.917 134.626 255.362C134.323 254.799 134.171 254.149 134.171 253.412C134.171 252.675 134.319 252.03 134.613 251.475C134.917 250.912 135.337 250.478 135.874 250.175C136.42 249.872 137.044 249.72 137.746 249.72C138.422 249.72 139.025 249.867 139.553 250.162C140.082 250.457 140.494 250.873 140.788 251.41C141.083 251.939 141.23 252.55 141.23 253.243ZM139.683 252.775C139.675 252.229 139.48 251.791 139.098 251.462C138.717 251.133 138.245 250.968 137.681 250.968C137.17 250.968 136.732 251.133 136.368 251.462C136.004 251.783 135.788 252.22 135.718 252.775H139.683ZM144.171 250.903C144.422 250.556 144.765 250.275 145.198 250.058C145.64 249.833 146.13 249.72 146.667 249.72C147.3 249.72 147.872 249.872 148.383 250.175C148.894 250.478 149.297 250.912 149.592 251.475C149.887 252.03 150.034 252.667 150.034 253.386C150.034 254.105 149.887 254.751 149.592 255.323C149.297 255.886 148.89 256.328 148.37 256.649C147.859 256.961 147.291 257.117 146.667 257.117C146.112 257.117 145.618 257.009 145.185 256.792C144.76 256.575 144.422 256.298 144.171 255.96V257H142.689V247.38H144.171V250.903ZM148.526 253.386C148.526 252.892 148.422 252.467 148.214 252.112C148.015 251.748 147.746 251.475 147.408 251.293C147.079 251.102 146.723 251.007 146.342 251.007C145.969 251.007 145.614 251.102 145.276 251.293C144.947 251.484 144.678 251.761 144.47 252.125C144.271 252.489 144.171 252.918 144.171 253.412C144.171 253.906 144.271 254.339 144.47 254.712C144.678 255.076 144.947 255.353 145.276 255.544C145.614 255.735 145.969 255.83 146.342 255.83C146.723 255.83 147.079 255.735 147.408 255.544C147.746 255.345 148.015 255.059 148.214 254.686C148.422 254.313 148.526 253.88 148.526 253.386Z" fill="#E2F163"/>
<path d="M194.491 247.965V257H193.009V250.812L190.253 257H189.226L186.457 250.812V257H184.975V247.965H186.574L189.746 255.05L192.905 247.965H194.491ZM195.945 253.386C195.945 252.667 196.092 252.03 196.387 251.475C196.69 250.92 197.098 250.491 197.609 250.188C198.129 249.876 198.701 249.72 199.325 249.72C199.888 249.72 200.378 249.833 200.794 250.058C201.219 250.275 201.557 250.548 201.808 250.877V249.837H203.303V257H201.808V255.934C201.557 256.272 201.214 256.554 200.781 256.779C200.348 257.004 199.854 257.117 199.299 257.117C198.684 257.117 198.12 256.961 197.609 256.649C197.098 256.328 196.69 255.886 196.387 255.323C196.092 254.751 195.945 254.105 195.945 253.386ZM201.808 253.412C201.808 252.918 201.704 252.489 201.496 252.125C201.297 251.761 201.032 251.484 200.703 251.293C200.374 251.102 200.018 251.007 199.637 251.007C199.256 251.007 198.9 251.102 198.571 251.293C198.242 251.475 197.973 251.748 197.765 252.112C197.566 252.467 197.466 252.892 197.466 253.386C197.466 253.88 197.566 254.313 197.765 254.686C197.973 255.059 198.242 255.345 198.571 255.544C198.909 255.735 199.264 255.83 199.637 255.83C200.018 255.83 200.374 255.735 200.703 255.544C201.032 255.353 201.297 255.076 201.496 254.712C201.704 254.339 201.808 253.906 201.808 253.412ZM206.731 250.877C206.948 250.513 207.234 250.231 207.589 250.032C207.953 249.824 208.382 249.72 208.876 249.72V251.254H208.499C207.919 251.254 207.477 251.401 207.173 251.696C206.879 251.991 206.731 252.502 206.731 253.23V257H205.249V249.837H206.731V250.877Z" fill="#E2F163"/>
<path d="M248.422 255.154H244.639L243.989 257H242.442L245.679 247.952H247.395L250.632 257H249.072L248.422 255.154ZM248.006 253.945L246.537 249.746L245.055 253.945H248.006ZM253.521 250.89C253.773 250.561 254.115 250.283 254.548 250.058C254.982 249.833 255.471 249.72 256.017 249.72C256.641 249.72 257.209 249.876 257.72 250.188C258.24 250.491 258.648 250.92 258.942 251.475C259.237 252.03 259.384 252.667 259.384 253.386C259.384 254.105 259.237 254.751 258.942 255.323C258.648 255.886 258.24 256.328 257.72 256.649C257.209 256.961 256.641 257.117 256.017 257.117C255.471 257.117 254.986 257.009 254.561 256.792C254.137 256.567 253.79 256.289 253.521 255.96V260.406H252.039V249.837H253.521V250.89ZM257.876 253.386C257.876 252.892 257.772 252.467 257.564 252.112C257.365 251.748 257.096 251.475 256.758 251.293C256.429 251.102 256.074 251.007 255.692 251.007C255.32 251.007 254.964 251.102 254.626 251.293C254.297 251.484 254.028 251.761 253.82 252.125C253.621 252.489 253.521 252.918 253.521 253.412C253.521 253.906 253.621 254.339 253.82 254.712C254.028 255.076 254.297 255.353 254.626 255.544C254.964 255.735 255.32 255.83 255.692 255.83C256.074 255.83 256.429 255.735 256.758 255.544C257.096 255.345 257.365 255.059 257.564 254.686C257.772 254.313 257.876 253.88 257.876 253.386ZM262.332 250.877C262.549 250.513 262.835 250.231 263.19 250.032C263.554 249.824 263.983 249.72 264.477 249.72V251.254H264.1C263.519 251.254 263.077 251.401 262.774 251.696C262.479 251.991 262.332 252.502 262.332 253.23V257H260.85V249.837H262.332V250.877Z" fill="#E2F163"/>
</svg>
