<svg width="309" height="300" viewBox="0 0 309 300" fill="none" xmlns="http://www.w3.org/2000/svg">
<path d="M216.371 123.645C149.145 110.601 102.624 123.645 102.624 123.645C102.624 123.645 85.1187 211.666 145.089 228.649V282.29H172.882V229.239C229.678 214.518 216.371 123.645 216.371 123.645Z" fill="#FBC343"/>
<path d="M163.192 141.317L168.933 152.951C169.45 153.998 170.448 154.723 171.604 154.891L184.443 156.757C187.352 157.181 188.514 160.756 186.409 162.807L177.118 171.864C176.282 172.68 175.9 173.853 176.098 175.004L178.292 187.79C178.788 190.688 175.747 192.898 173.144 191.53L161.661 185.494C160.628 184.95 159.393 184.95 158.36 185.494L146.877 191.53C144.275 192.898 141.233 190.688 141.729 187.79L143.923 175.004C144.121 173.853 143.739 172.678 142.903 171.864L133.612 162.807C131.507 160.756 132.668 157.179 135.578 156.757L148.417 154.891C149.572 154.723 150.57 153.998 151.088 152.951L156.829 141.317C158.131 138.681 161.892 138.681 163.192 141.317Z" fill="#FFDD7A"/>
<path d="M177.424 182.721C177.068 182.494 176.71 182.27 176.36 182.037C171.186 178.62 166.349 174.675 162.029 170.223C157.509 165.565 153.509 160.384 150.56 154.587C150.464 154.398 150.372 154.208 150.277 154.018C149.763 154.479 149.121 154.79 148.418 154.891L135.58 156.756C132.671 157.18 131.508 160.755 133.613 162.807L142.904 171.863C143.741 172.679 144.122 173.852 143.925 175.003L141.731 187.789C141.234 190.688 144.275 192.897 146.879 191.529L158.361 185.493C159.394 184.95 160.63 184.95 161.663 185.493L173.145 191.529C175.747 192.897 178.79 190.688 178.293 187.789L177.424 182.721Z" fill="#FFF7BA"/>
<path d="M141.73 187.79L143.924 175.004C144.122 173.853 143.74 172.678 142.904 171.864L133.613 162.808C131.508 160.756 132.669 157.179 135.579 156.757L148.418 154.891C149.574 154.723 150.572 153.998 151.089 152.951L156.83 141.317C157.424 140.114 158.528 139.467 159.678 139.361H156.676C155.305 139.235 153.869 139.882 153.161 141.317L147.42 152.951C146.903 153.998 145.905 154.723 144.749 154.891L131.91 156.757C129.001 157.181 127.839 160.756 129.944 162.808L139.235 171.864C140.071 172.68 140.453 173.853 140.255 175.004L138.061 187.79C137.706 189.861 139.158 191.581 140.965 191.893H144.639C142.829 191.582 141.375 189.862 141.73 187.79Z" fill="#E05318"/>
<path d="M203.123 299.997C203.139 299.7 203.147 299.402 203.147 299.1C203.147 289.852 195.582 282.285 186.333 282.285H131.638C122.391 282.285 114.824 289.851 114.824 299.1C114.824 299.4 114.832 299.7 114.848 299.997H203.123Z" fill="#F29019"/>
<path d="M137.35 292.645V282.289H131.638C122.391 282.289 114.824 289.855 114.824 299.104C114.824 299.404 114.832 299.704 114.848 300.001H203.121C203.137 299.704 203.145 299.406 203.145 299.104C203.145 296.82 202.682 294.638 201.847 292.647H137.35V292.645Z" fill="#EC6F17"/>
<path d="M202.348 148.014C203.143 157.451 201.519 169.921 200.094 179.283C199.873 180.729 199.629 182.209 199.919 183.641C200.208 185.073 201.17 186.474 202.59 186.824C203.995 187.173 205.492 186.399 206.401 185.271C207.311 184.144 207.753 182.719 208.151 181.326C212.07 167.623 212.816 155.746 211.578 141.488C211.151 136.577 210.225 129.547 204.16 132.154C198.072 134.775 201.871 142.349 202.348 148.014Z" fill="white"/>
<path d="M197.888 190.155C195.15 191.107 194.275 195.267 196.397 197.24C198.52 199.214 202.606 198.037 203.354 195.236C204.102 192.434 201.146 189.378 198.322 190.03" fill="white"/>
<path d="M243.576 147.217C241.795 144.509 239.142 142.057 235.731 140.866C230.424 139.014 222.665 137.626 217.535 137.398C217.698 141.068 217.783 145.309 217.686 149.919C219.989 150.235 222.297 150.511 224.514 151.195C227.756 152.195 230.915 154.307 231.984 157.526C232.541 159.205 232.48 161.017 232.383 162.78C231.911 171.38 230.726 179.94 228.841 188.344C228.56 189.593 228.226 190.911 227.317 191.813C225.935 193.184 223.736 193.153 221.794 193.032C218.052 192.797 214.31 192.563 210.568 192.329C208.824 197.065 206.679 201.635 204.053 205.873C209.732 207.527 215.714 208.374 221.6 208.713C225.363 208.93 229.275 208.571 232.598 206.792C238.763 203.49 240.436 196.328 241.518 189.961C243.378 178.998 244.6 167.924 245.173 156.818C245.343 153.521 245.391 149.976 243.576 147.217Z" fill="#F29019"/>
<path d="M96.1796 193.032C94.2375 193.153 92.0385 193.184 90.6569 191.813C89.7475 190.911 89.4142 189.593 89.1331 188.344C87.2482 179.94 86.0628 171.38 85.5907 162.78C85.4935 161.015 85.4327 159.203 85.9899 157.526C87.059 154.307 90.2178 152.195 93.4599 151.195C95.6659 150.514 97.9621 150.238 100.255 149.924C100.302 145.304 100.541 141.055 100.85 137.383C95.7301 137.549 87.6908 138.966 82.241 140.866C78.8305 142.057 76.1767 144.509 74.396 147.217C72.5806 149.976 72.6291 153.521 72.7992 156.82C73.372 167.926 74.5921 178.999 76.4544 189.963C77.5357 196.329 79.2088 203.492 85.3737 206.793C88.6974 208.572 92.6095 208.932 96.3723 208.715C102.187 208.38 108.096 207.552 113.713 205.938C110.899 201.689 108.638 197.11 106.833 192.365C103.282 192.587 99.7307 192.81 96.1796 193.032Z" fill="#EC6F17"/>
<path d="M159.498 231.172C159.217 231.149 158.943 231.12 158.663 231.094C157.035 230.948 155.451 230.757 153.909 230.526C153.741 230.5 153.571 230.478 153.404 230.452C152.995 230.388 152.59 230.318 152.186 230.249C151.959 230.209 151.73 230.171 151.504 230.129C149.274 229.721 147.135 229.226 145.091 228.648V282.289H158.988V237.74L172.574 229.318C168.568 230.329 164.222 230.969 159.498 231.172Z" fill="#EC6F17"/>
<path d="M135.74 168.457L129.944 162.808C127.839 160.756 129 157.179 131.911 156.758L135.531 156.232L135.137 133.304L172.515 118.251C129.757 116.038 102.628 123.644 102.628 123.644C102.628 123.644 82.4703 224.991 159.502 231.172C167.172 230.844 173.85 229.367 179.668 226.994C174.827 225.113 140.926 200.071 136.246 197.807L135.74 168.457Z" fill="#F29019"/>
<path d="M75.4753 129.657C73.3335 131.306 70.9991 132.8 68.2846 134.058C58.3639 138.654 50.6422 136.145 42.4657 133.487C40.9349 132.991 39.3486 132.474 37.6806 131.981C35.8374 131.436 34.1521 130.832 32.6612 130.301C27.6991 128.527 24.7017 127.456 20.092 129.339C16.1851 130.934 12.5195 134.183 8.97538 137.325C8.00171 138.186 7.04365 139.036 6.09427 139.843C4.50966 141.19 2.2013 140.975 0.878763 139.416C-0.443771 137.858 -0.25112 135.525 1.30572 134.201C2.21692 133.428 3.13506 132.614 4.06534 131.788C7.88542 128.399 12.2158 124.561 17.2907 122.49C24.5212 119.536 29.6829 121.381 35.1466 123.336C36.6132 123.86 38.1267 124.401 39.7703 124.887C41.5059 125.399 43.1547 125.936 44.7463 126.455C52.3726 128.931 57.8831 130.724 65.1675 127.348C70.2094 125.014 73.8021 121.517 77.9641 117.471C78.6983 116.756 79.4411 116.034 80.2048 115.307C81.6974 113.892 84.0266 113.953 85.4342 115.432C86.8435 116.911 86.7897 119.252 85.3092 120.661C84.5647 121.371 83.8392 122.077 83.1224 122.775C80.6283 125.2 78.2089 127.553 75.4753 129.657Z" fill="#896CFE"/>
<path d="M190.452 91.1449C190.158 91.1345 189.862 91.0894 189.566 91.0044C187.602 90.4455 186.463 88.3975 187.022 86.4328C187.305 85.4435 187.57 84.468 187.836 83.5048C189.478 77.5152 191.031 71.8606 194.903 66.2528C201.131 57.2519 209.069 55.4972 217.475 53.6384C219.037 53.2913 220.656 52.9355 222.336 52.5172C224.195 52.0521 225.952 51.7188 227.5 51.422C232.684 50.431 235.814 49.834 238.835 45.8681C241.399 42.5079 242.91 37.8409 244.372 33.3248C244.769 32.096 245.161 30.888 245.568 29.7182C246.238 27.7882 248.355 26.7694 250.276 27.4411C252.206 28.1111 253.225 30.2198 252.553 32.1498C252.165 33.2693 251.79 34.4269 251.408 35.6019C249.832 40.4686 248.046 45.9861 244.717 50.3512C239.977 56.5681 234.59 57.5973 228.887 58.6856C227.361 58.9771 225.782 59.2774 224.124 59.6922C222.378 60.1278 220.696 60.4993 219.072 60.8585C211.229 62.5924 205.56 63.8455 200.988 70.4547C197.833 75.0263 196.505 79.8617 194.969 85.4608C194.697 86.4466 194.424 87.4446 194.136 88.4582C193.662 90.1313 192.113 91.204 190.452 91.1449Z" fill="#896CFE"/>
<path d="M279.914 146.405C275.594 144.041 273.268 140.493 270.842 136.79C269.991 135.491 269.11 134.146 268.093 132.772C267.024 131.323 266.036 129.908 265.081 128.544C260.484 121.954 257.165 117.195 249.312 115.494C243.876 114.32 238.898 114.94 233.132 115.657C232.12 115.784 231.096 115.91 230.052 116.03C228.023 116.264 226.186 114.806 225.956 112.778C225.723 110.749 227.179 108.914 229.208 108.682C230.227 108.565 231.228 108.439 232.218 108.317C238.384 107.55 244.207 106.826 250.874 108.265C261.569 110.585 266.22 117.252 271.146 124.311C272.062 125.625 273.013 126.985 274.039 128.379C275.177 129.92 276.158 131.415 277.024 132.735C279.916 137.147 281.66 139.81 286.48 141.089C290.553 142.172 295.429 141.79 300.146 141.42C301.446 141.318 302.727 141.217 303.975 141.148C306.018 141.032 307.76 142.597 307.875 144.635C307.991 146.674 306.429 148.422 304.388 148.535C303.194 148.602 301.967 148.698 300.722 148.795C295.637 149.194 289.869 149.644 284.579 148.238C282.793 147.762 281.257 147.139 279.914 146.405Z" fill="#896CFE"/>
<path d="M106.402 90.1594C105.564 90.8051 104.436 91.0515 103.344 90.72C102.445 90.4493 101.558 90.1907 100.68 89.9373C95.1676 88.3335 89.9608 86.8201 84.8303 83.1562C76.6226 77.2881 75.1144 69.9413 73.5211 62.1623C73.2226 60.7131 72.9154 59.21 72.5526 57.6514C72.1517 55.9262 71.8671 54.3 71.6171 52.8646C70.7806 48.0657 70.2755 45.1707 66.6568 42.3225C63.59 39.9118 59.3065 38.4469 55.1618 37.0307C54.0337 36.6454 52.9194 36.2635 51.8451 35.8713C50.0817 35.2239 49.1757 33.2696 49.8196 31.5062C50.4653 29.7428 52.4196 28.8368 54.1847 29.4808C55.2122 29.8557 56.2796 30.2219 57.3608 30.5915C61.8248 32.1171 66.8859 33.8476 70.8639 36.9751C76.5307 41.4356 77.3985 46.4203 78.3183 51.6966C78.5648 53.1094 78.8199 54.5725 79.1775 56.1102C79.5541 57.7295 79.8752 59.2899 80.1841 60.7964C81.6715 68.0599 82.7476 73.3066 88.7841 77.6196C92.9686 80.6101 97.4222 81.9048 102.577 83.4044C103.473 83.6648 104.382 83.9286 105.302 84.2063C107.102 84.7478 108.12 86.6448 107.579 88.4446C107.371 89.1528 106.947 89.7411 106.402 90.1594Z" fill="#896CFE"/>
<path d="M4.94124 110.534C6.46337 116.015 14.9626 113.649 13.4405 108.173C11.9219 102.696 3.41738 105.058 4.94124 110.534Z" fill="#E2F163"/>
<path d="M205.536 68.2336C203.407 73.4994 211.581 76.8092 213.713 71.5416C215.851 66.2775 207.675 62.9608 205.536 68.2336Z" fill="white"/>
<path d="M272.441 83.1089C268.045 86.7051 273.627 93.533 278.025 89.9368C282.428 86.3441 276.846 79.5093 272.441 83.1089Z" fill="#E2F163"/>
<path d="M281.885 119.396C277.489 122.992 283.071 129.82 287.47 126.222C291.872 122.631 286.29 115.796 281.885 119.396Z" fill="#E2F163"/>
<path d="M226.527 94.0193C222.13 97.6155 227.712 104.443 232.112 100.845C236.513 97.2527 230.935 90.4196 226.527 94.0193Z" fill="#E2F163"/>
<path d="M198.184 81.9672C193.788 85.5634 199.37 92.3913 203.77 88.7934C208.171 85.2006 202.591 78.3658 198.184 81.9672Z" fill="#B3A0FF"/>
<path d="M92.4052 102.816C93.9274 108.287 102.425 105.925 100.903 100.453C99.3859 94.9733 90.8831 97.332 92.4052 102.816Z" fill="#E2F163"/>
<path d="M211.227 106.436C206.831 110.032 212.413 116.86 216.811 113.264C221.212 109.669 215.632 102.835 211.227 106.436Z" fill="#E2F163"/>
<path d="M110.736 84.2594C108.606 89.5252 116.781 92.835 118.913 87.5675C121.049 82.3016 112.873 78.9866 110.736 84.2594Z" fill="white"/>
<path d="M115.017 27.8856C116.54 33.3579 125.036 30.9958 123.514 25.5216C121.997 20.0441 113.494 22.4028 115.017 27.8856Z" fill="#B3A0FF"/>
<path d="M221.416 121.857C217.02 125.453 222.601 132.281 226.999 128.685C231.401 125.092 225.819 118.257 221.416 121.857Z" fill="#E2F163"/>
<path d="M266.595 26.9402C264.46 32.2095 272.637 35.5158 274.768 30.25C276.901 24.9841 268.728 21.6726 266.595 26.9402Z" fill="#B3A0FF"/>
<path d="M232.265 7.29649C230.132 12.5606 238.31 15.8721 240.441 10.6046C242.578 5.33872 234.403 2.02371 232.265 7.29649Z" fill="#E2F163"/>
<path d="M211.289 16.1758C209.159 21.4399 217.336 24.7497 219.469 19.4839C221.603 14.2146 213.427 10.8996 211.289 16.1758Z" fill="white"/>
<path d="M251.607 14.9522C249.477 20.2215 257.652 23.533 259.783 18.2654C261.921 12.9944 253.74 9.68458 251.607 14.9522Z" fill="#E2F163"/>
<path d="M233.173 30.5456C230.108 35.3359 237.533 40.0828 240.593 35.2977C243.663 30.4987 236.239 25.7484 233.173 30.5456Z" fill="#B3A0FF"/>
<path d="M271.41 44.4734C268.345 49.262 275.77 54.0123 278.835 49.2273C281.9 44.43 274.475 39.6745 271.41 44.4734Z" fill="#E2F163"/>
<path d="M269.183 99.0936C264.199 101.822 268.43 109.551 273.415 106.826C278.412 104.09 274.177 96.3548 269.183 99.0936Z" fill="#B3A0FF"/>
<path d="M300.128 77.6074C295.143 80.3358 299.371 88.0645 304.355 85.3396C309.349 82.6008 305.119 74.8686 300.128 77.6074Z" fill="#E2F163"/>
<path d="M301.915 117.006C296.928 119.736 301.158 127.463 306.146 124.734C311.138 122.003 306.905 114.267 301.915 117.006Z" fill="white"/>
<path d="M88.1396 58.4126C86.0048 63.6888 94.1761 66.9934 96.3074 61.7206C98.4405 56.4513 90.2675 53.1398 88.1396 58.4126Z" fill="#E2F163"/>
<path d="M4.53017 80.8863C6.0523 86.3674 14.5464 84 13.0277 78.5276C11.5021 73.0449 3.01151 75.4105 4.53017 80.8863Z" fill="white"/>
<path d="M52.4389 121.438C53.9558 126.912 62.4516 124.552 60.9278 119.076C59.4022 113.6 50.9185 115.962 52.4389 121.438Z" fill="white"/>
<path d="M58.6141 87.7067C60.1362 93.1773 68.632 90.8169 67.1133 85.3445C65.5895 79.8669 57.0885 82.2308 58.6141 87.7067Z" fill="#E2F163"/>
<path d="M39.5423 59.4044C41.0644 64.8855 49.5567 62.5198 48.0346 57.0457C46.5055 51.5629 38.0132 53.9268 39.5423 59.4044Z" fill="#E2F163"/>
<path d="M32.7026 115.756C34.2265 121.234 42.7188 118.87 41.1932 113.398C39.6676 107.916 31.177 110.275 32.7026 115.756Z" fill="#E2F163"/>
<path d="M244.386 77.6729C239.394 80.3961 243.629 88.1404 248.619 85.4085C253.605 82.6784 249.374 74.941 244.386 77.6729Z" fill="#E2F163"/>
<path d="M151.811 84.4333C151.656 84.6832 151.471 84.9175 151.25 85.1327C149.792 86.5629 147.449 86.5386 146.017 85.0789C145.299 84.343 144.582 83.6297 143.876 82.9216C139.485 78.5305 135.34 74.3806 132.384 68.24C127.646 58.3731 130.053 50.6063 132.599 42.3829C133.072 40.8539 133.564 39.271 134.031 37.6048C134.549 35.7598 135.127 34.0694 135.637 32.5767C137.343 27.5816 138.372 24.5686 136.423 19.9779C134.772 16.0867 131.466 12.4628 128.266 8.95682C127.396 8.00224 126.539 7.06501 125.725 6.13299C124.38 4.59524 124.543 2.25216 126.077 0.914006C127.615 -0.431091 129.951 -0.273151 131.296 1.26633C132.075 2.15844 132.896 3.05748 133.729 3.97042C137.178 7.74884 141.087 12.0323 143.232 17.0847C146.287 24.2805 144.513 29.4717 142.637 34.9649C142.135 36.435 141.614 37.9554 141.153 39.6025C140.667 41.3346 140.156 42.98 139.665 44.5698C137.287 52.2429 135.571 57.7882 139.051 65.0326C141.46 70.0381 145.004 73.5857 149.109 77.6904C149.831 78.4142 150.563 79.1449 151.301 79.8981C152.519 81.1426 152.684 83.0205 151.811 84.4333Z" fill="#896CFE"/>
<path d="M152.557 29.312C155.919 33.8922 163.029 28.675 159.669 24.0947C156.311 19.5092 149.193 24.7247 152.557 29.312Z" fill="#E2F163"/>
<path d="M189.286 21.7853C192.648 26.3655 199.759 21.1483 196.397 16.5663C193.04 11.9825 185.923 17.1981 189.286 21.7853Z" fill="#E2F163"/>
<path d="M161.04 75.7331C164.402 80.3134 171.513 75.0961 168.151 70.5141C164.795 65.9304 157.679 71.1424 161.04 75.7331Z" fill="#E2F163"/>
<path d="M187.065 49.3352C189.527 54.4569 197.468 50.6369 195.008 45.5151C192.539 40.3811 184.591 44.2064 187.065 49.3352Z" fill="#B3A0FF"/>
<path d="M115.295 48.8082C117.758 53.93 125.698 50.1099 123.239 44.9881C120.771 39.8542 112.822 43.6777 115.295 48.8082Z" fill="#B3A0FF"/>
<path d="M168.604 10.8607C171.067 15.9808 179.005 12.1659 176.548 7.04412C174.074 1.91366 166.132 5.73026 168.604 10.8607Z" fill="#E2F163"/>
<path d="M92.6905 24.0569C95.1551 29.1787 103.094 25.3621 100.631 20.2386C98.1646 15.1081 90.2173 18.9282 92.6905 24.0569Z" fill="white"/>
<path d="M145.651 57.0428C148.109 62.1698 156.065 58.3479 153.597 53.221C151.132 48.0992 143.183 51.9192 145.651 57.0428Z" fill="#E2F163"/>
<path d="M248.983 47.1676C245.914 51.9545 253.348 56.71 256.41 51.918C259.475 47.1312 252.046 42.3774 248.983 47.1676Z" fill="#E2F163"/>
<path d="M168.485 45.7698C166.35 51.0374 174.527 54.3472 176.662 49.0796C178.796 43.8121 170.618 40.4953 168.485 45.7698Z" fill="#E2F163"/>
<path d="M63.59 21.4203C60.5249 26.2106 67.9498 30.9575 71.0097 26.1724C74.08 21.3752 66.6551 16.6231 63.59 21.4203Z" fill="#B3A0FF"/>
<path d="M79.3989 38.0407C76.3303 42.8275 83.7639 47.5831 86.8256 42.7911C89.8906 38.0042 82.4605 33.2504 79.3989 38.0407Z" fill="#E2F163"/>
<path d="M68.9506 104.902C70.4693 110.376 78.9651 108.013 77.4395 102.541C75.9191 97.0653 67.432 99.4274 68.9506 104.902Z" fill="#E2F163"/>
<path d="M20.5825 60.3788C22.1046 65.8546 30.5987 63.489 29.0765 58.0149C27.5509 52.5304 19.0569 54.896 20.5825 60.3788Z" fill="#B3A0FF"/>
<path d="M28.2736 87.7011C29.794 93.1753 38.2898 90.8148 36.7694 85.3425C35.2438 79.8701 26.7515 82.2288 28.2736 87.7011Z" fill="#B3A0FF"/>
</svg>
